{
    "asset" : {
        "generator" : "Khronos glTF Blender I/O v3.4.50",
        "version" : "2.0"
    },
    "scene" : 0,
    "scenes" : [
        {
            "extras" : {
                "previews_dir" : "E:\\Users\\saars\\Downloads\\HDRIs\\",
                "previews_list" : [
                    "502-free-hdri-skies-com.hdr",
                    "cannon_2k.exr",
                    "studio_small_03_2k.hdr"
                ],
                "sub_dirs" : 0,
                "recursive_search" : 0,
                "prev" : 1,
                "qremesher" : {
                    "target_count" : 50,
                    "adapt_quad_count" : 0
                }
            },
            "name" : "Scene",
            "nodes" : [
                0,
                1,
                2,
                3
            ]
        }
    ],
    "nodes" : [
        {
            "extras" : {
                "ant_landscape" : {}
            },
            "mesh" : 0,
            "name" : "MirrorFrame",
            "scale" : [
                2,
                2,
                2
            ]
        },
        {
            "extras" : {
                "ant_landscape" : {}
            },
            "mesh" : 1,
            "name" : "Mirror",
            "scale" : [
                2,
                2,
                2
            ]
        },
        {
            "mesh" : 2,
            "name" : "Faucet",
            "scale" : [
                2,
                2,
                2
            ]
        },
        {
            "mesh" : 3,
            "name" : "SinkBasin",
            "scale" : [
                2,
                2,
                2
            ]
        }
    ],
    "materials" : [
        {
            "doubleSided" : true,
            "name" : "MirrorFrame",
            "pbrMetallicRoughness" : {
                "baseColorFactor" : [
                    0.800000011920929,
                    0.800000011920929,
                    0.800000011920929,
                    1
                ],
                "metallicFactor" : 0.8045454621315002,
                "roughnessFactor" : 0.6272727251052856
            }
        },
        {
            "alphaCutoff" : 0.5,
            "alphaMode" : "MASK",
            "name" : "Outline",
            "pbrMetallicRoughness" : {}
        },
        {
            "doubleSided" : true,
            "name" : "Mirror",
            "pbrMetallicRoughness" : {}
        },
        {
            "name" : "Faucet",
            "pbrMetallicRoughness" : {
                "baseColorFactor" : [
                    0.2237020581960678,
                    0.2237020581960678,
                    0.2237020581960678,
                    1
                ],
                "metallicFactor" : 0.6136363744735718,
                "roughnessFactor" : 0.4000000059604645
            }
        },
        {
            "name" : "SinkBasin",
            "pbrMetallicRoughness" : {
                "baseColorFactor" : [
                    0.800000011920929,
                    0.800000011920929,
                    0.800000011920929,
                    1
                ],
                "metallicFactor" : 0,
                "roughnessFactor" : 0.8727272748947144
            }
        }
    ],
    "meshes" : [
        {
            "name" : "Cube.011",
            "primitives" : [
                {
                    "attributes" : {
                        "POSITION" : 0,
                        "TEXCOORD_0" : 1,
                        "NORMAL" : 2
                    },
                    "indices" : 3,
                    "material" : 0
                },
                {
                    "attributes" : {
                        "POSITION" : 4,
                        "TEXCOORD_0" : 5,
                        "NORMAL" : 6
                    },
                    "indices" : 7,
                    "material" : 1
                }
            ]
        },
        {
            "name" : "Cube.012",
            "primitives" : [
                {
                    "attributes" : {
                        "POSITION" : 8,
                        "TEXCOORD_0" : 9,
                        "NORMAL" : 10
                    },
                    "indices" : 11,
                    "material" : 2
                }
            ]
        },
        {
            "name" : "Cube",
            "primitives" : [
                {
                    "attributes" : {
                        "POSITION" : 12,
                        "TEXCOORD_0" : 13,
                        "NORMAL" : 14
                    },
                    "indices" : 15,
                    "material" : 3
                },
                {
                    "attributes" : {
                        "POSITION" : 16,
                        "TEXCOORD_0" : 17,
                        "NORMAL" : 18
                    },
                    "indices" : 19,
                    "material" : 1
                }
            ]
        },
        {
            "name" : "mesh",
            "primitives" : [
                {
                    "attributes" : {
                        "POSITION" : 20,
                        "NORMAL" : 21
                    },
                    "indices" : 22,
                    "material" : 4
                },
                {
                    "attributes" : {
                        "POSITION" : 23,
                        "NORMAL" : 24
                    },
                    "indices" : 25,
                    "material" : 1
                }
            ]
        }
    ],
    "accessors" : [
        {
            "bufferView" : 0,
            "componentType" : 5126,
            "count" : 64,
            "max" : [
                0.3089574873447418,
                1.282417893409729,
                0.07617967575788498
            ],
            "min" : [
                -0.30622294545173645,
                0.5811123251914978,
                0.04982445389032364
            ],
            "type" : "VEC3"
        },
        {
            "bufferView" : 1,
            "componentType" : 5126,
            "count" : 64,
            "type" : "VEC2"
        },
        {
            "bufferView" : 2,
            "componentType" : 5126,
            "count" : 64,
            "type" : "VEC3"
        },
        {
            "bufferView" : 3,
            "componentType" : 5123,
            "count" : 96,
            "type" : "SCALAR"
        },
        {
            "bufferView" : 4,
            "componentType" : 5126,
            "count" : 64,
            "max" : [
                0.3214048743247986,
                1.2937175035476685,
                0.08165863901376724
            ],
            "min" : [
                -0.31867021322250366,
                0.5941067337989807,
                0.03827744349837303
            ],
            "type" : "VEC3"
        },
        {
            "bufferView" : 5,
            "componentType" : 5126,
            "count" : 64,
            "type" : "VEC2"
        },
        {
            "bufferView" : 6,
            "componentType" : 5126,
            "count" : 64,
            "type" : "VEC3"
        },
        {
            "bufferView" : 7,
            "componentType" : 5123,
            "count" : 96,
            "type" : "SCALAR"
        },
        {
            "bufferView" : 8,
            "componentType" : 5126,
            "count" : 4,
            "max" : [
                0.27878081798553467,
                1.2522183656692505,
                0.07617992907762527
            ],
            "min" : [
                -0.27602338790893555,
                0.6253913044929504,
                0.07617989182472229
            ],
            "type" : "VEC3"
        },
        {
            "bufferView" : 9,
            "componentType" : 5126,
            "count" : 4,
            "type" : "VEC2"
        },
        {
            "bufferView" : 10,
            "componentType" : 5126,
            "count" : 4,
            "type" : "VEC3"
        },
        {
            "bufferView" : 11,
            "componentType" : 5123,
            "count" : 6,
            "type" : "SCALAR"
        },
        {
            "bufferView" : 12,
            "componentType" : 5126,
            "count" : 544,
            "max" : [
                0.022854652255773544,
                0.6684141159057617,
                0.0025383755564689636
            ],
            "min" : [
                -0.02381124719977379,
                0.5593470335006714,
                -0.14714494347572327
            ],
            "type" : "VEC3"
        },
        {
            "bufferView" : 13,
            "componentType" : 5126,
            "count" : 544,
            "type" : "VEC2"
        },
        {
            "bufferView" : 14,
            "componentType" : 5126,
            "count" : 544,
            "type" : "VEC3"
        },
        {
            "bufferView" : 15,
            "componentType" : 5123,
            "count" : 816,
            "type" : "SCALAR"
        },
        {
            "bufferView" : 16,
            "componentType" : 5126,
            "count" : 544,
            "max" : [
                0.03272665664553642,
                0.6784140467643738,
                0.012538375332951546
            ],
            "min" : [
                -0.03368325158953667,
                0.5493470430374146,
                -0.1571381688117981
            ],
            "type" : "VEC3"
        },
        {
            "bufferView" : 17,
            "componentType" : 5126,
            "count" : 544,
            "type" : "VEC2"
        },
        {
            "bufferView" : 18,
            "componentType" : 5126,
            "count" : 544,
            "type" : "VEC3"
        },
        {
            "bufferView" : 19,
            "componentType" : 5123,
            "count" : 816,
            "type" : "SCALAR"
        },
        {
            "bufferView" : 20,
            "componentType" : 5126,
            "count" : 176,
            "max" : [
                0.31343674659729004,
                0.573981761932373,
                0.09125663340091705
            ],
            "min" : [
                -0.30627959966659546,
                0.4048382639884949,
                -0.2766932547092438
            ],
            "type" : "VEC3"
        },
        {
            "bufferView" : 21,
            "componentType" : 5126,
            "count" : 176,
            "type" : "VEC3"
        },
        {
            "bufferView" : 22,
            "componentType" : 5123,
            "count" : 558,
            "type" : "SCALAR"
        },
        {
            "bufferView" : 23,
            "componentType" : 5126,
            "count" : 178,
            "max" : [
                0.3334346115589142,
                0.5939817428588867,
                0.11125011742115021
            ],
            "min" : [
                -0.3262796103954315,
                0.3848382532596588,
                -0.2908353805541992
            ],
            "type" : "VEC3"
        },
        {
            "bufferView" : 24,
            "componentType" : 5126,
            "count" : 178,
            "type" : "VEC3"
        },
        {
            "bufferView" : 25,
            "componentType" : 5123,
            "count" : 558,
            "type" : "SCALAR"
        }
    ],
    "bufferViews" : [
        {
            "buffer" : 0,
            "byteLength" : 768,
            "byteOffset" : 0,
            "target" : 34962
        },
        {
            "buffer" : 0,
            "byteLength" : 512,
            "byteOffset" : 768,
            "target" : 34962
        },
        {
            "buffer" : 0,
            "byteLength" : 768,
            "byteOffset" : 1280,
            "target" : 34962
        },
        {
            "buffer" : 0,
            "byteLength" : 192,
            "byteOffset" : 2048,
            "target" : 34963
        },
        {
            "buffer" : 0,
            "byteLength" : 768,
            "byteOffset" : 2240,
            "target" : 34962
        },
        {
            "buffer" : 0,
            "byteLength" : 512,
            "byteOffset" : 3008,
            "target" : 34962
        },
        {
            "buffer" : 0,
            "byteLength" : 768,
            "byteOffset" : 3520,
            "target" : 34962
        },
        {
            "buffer" : 0,
            "byteLength" : 192,
            "byteOffset" : 4288,
            "target" : 34963
        },
        {
            "buffer" : 0,
            "byteLength" : 48,
            "byteOffset" : 4480,
            "target" : 34962
        },
        {
            "buffer" : 0,
            "byteLength" : 32,
            "byteOffset" : 4528,
            "target" : 34962
        },
        {
            "buffer" : 0,
            "byteLength" : 48,
            "byteOffset" : 4560,
            "target" : 34962
        },
        {
            "buffer" : 0,
            "byteLength" : 12,
            "byteOffset" : 4608,
            "target" : 34963
        },
        {
            "buffer" : 0,
            "byteLength" : 6528,
            "byteOffset" : 4620,
            "target" : 34962
        },
        {
            "buffer" : 0,
            "byteLength" : 4352,
            "byteOffset" : 11148,
            "target" : 34962
        },
        {
            "buffer" : 0,
            "byteLength" : 6528,
            "byteOffset" : 15500,
            "target" : 34962
        },
        {
            "buffer" : 0,
            "byteLength" : 1632,
            "byteOffset" : 22028,
            "target" : 34963
        },
        {
            "buffer" : 0,
            "byteLength" : 6528,
            "byteOffset" : 23660,
            "target" : 34962
        },
        {
            "buffer" : 0,
            "byteLength" : 4352,
            "byteOffset" : 30188,
            "target" : 34962
        },
        {
            "buffer" : 0,
            "byteLength" : 6528,
            "byteOffset" : 34540,
            "target" : 34962
        },
        {
            "buffer" : 0,
            "byteLength" : 1632,
            "byteOffset" : 41068,
            "target" : 34963
        },
        {
            "buffer" : 0,
            "byteLength" : 2112,
            "byteOffset" : 42700,
            "target" : 34962
        },
        {
            "buffer" : 0,
            "byteLength" : 2112,
            "byteOffset" : 44812,
            "target" : 34962
        },
        {
            "buffer" : 0,
            "byteLength" : 1116,
            "byteOffset" : 46924,
            "target" : 34963
        },
        {
            "buffer" : 0,
            "byteLength" : 2136,
            "byteOffset" : 48040,
            "target" : 34962
        },
        {
            "buffer" : 0,
            "byteLength" : 2136,
            "byteOffset" : 50176,
            "target" : 34962
        },
        {
            "buffer" : 0,
            "byteLength" : 1116,
            "byteOffset" : 52312,
            "target" : 34963
        }
    ],
    "buffers" : [
        {
            "byteLength" : 53428,
            "uri" : "data:application/octet-stream;base64,"
        }
    ]
}
