<svg viewBox="0 0 14 14" xmlns="http://www.w3.org/2000/svg"><path d="m4.2026409 12.8183c-.1045-.1154-.15321-.2967-.13381-.4978.0433-.4491.31787-.5556 1.43527-.5573h.92857v-2.6303-2.6302l-.28571-.3254c-.66952-.7626-.14966-1.9379.85714-1.9379.67508 0 1.14286.4846 1.14286 1.1838 0 .3405-.0588.4956-.28572.7541l-.28571.3254v2.6302 2.6303h.92857c1.1174 0 1.39196.1083 1.43527.5573.0194.2011-.0293.3824-.13381.4978-.15409.1703-.3284.1816-2.80146.1816s-2.64737-.011-2.80146-.1816zm-1.29378-3.0839c-.40267-.2027-.37192-.6453.0824-1.1865 1.54912-1.8451 1.5366-4.4292-.0306-6.3049-.39908-.4776-.44441-.8719-.12591-1.0949.45265-.3171.78808-.1031 1.49477.9535.68417 1.0229.96023 1.9563.96023 3.2465 0 1.1932-.16455 1.9125-.65019 2.8422-.32745.6268-1.20482 1.6684-1.40282 1.6652-.0494-.0007-.19699-.055-.32794-.1212zm7.5864001-.073c-.35763-.2813-.31982-.5726.14372-1.1079 1.46076-1.6867 1.55479-4.2093.22427-6.0167-.22807-.3098-.46111-.5919-.51786-.627-.32433-.2005.0719-.9097.50823-.9097.54688 0 1.69766 1.7516 2.0022 3.0476.41827 1.78-.1242 3.9654-1.30573 5.2603-.49537.5428-.71891.6178-1.05483.3535zm-9.2402201-1.5255c-.33014001-.2596-.31682001-.4248.0792-.9818.50228-.7065.65657-1.194.60017-1.8967-.0515-.642-.22496-1.0604-.65848-1.5886-.14951-.1822-.27184-.4091-.27184-.5044 0-.2095.4114-.6406.6114-.6406.48132 0 1.29959 1.2753 1.49138 2.3244.19277 1.0543-.28169 2.5493-1.01281 3.1913-.39492.3467-.50481.3593-.83903.096zm7.67501.049c-.30915-.2165-.2697-.6023.11229-1.0979.82659-1.0727.79591-2.3551-.0813-3.3977-.36396-.4325-.321-.8301.1145-1.0595.39919-.2103.87045.208 1.3808701 1.2252.28767.5734.3096.6847.3096 1.5715 0 .8685-.0264 1.01-.29341 1.5734-.33176.7-.8775801 1.3333-1.1490201 1.3333-.10002 0-.2771-.067-.39352-.1483z" fill="white"/></svg>