{
    "asset" : {
        "generator" : "Khronos glTF Blender I/O v3.4.50",
        "version" : "2.0"
    },
    "scene" : 0,
    "scenes" : [
        {
            "extras" : {
                "sprytile_data" : {
                    "auto_reload" : 0,
                    "world_pixels" : 32
                },
                "qremesher" : {
                    "target_count" : 80
                }
            },
            "name" : "Scene",
            "nodes" : [
                29
            ]
        }
    ],
    "nodes" : [
        {
            "name" : "hat",
            "rotation" : [
                -0.08020633459091187,
                0.011217921040952206,
                -0.22710275650024414,
                0.9704975485801697
            ],
            "scale" : [
                0.9999999403953552,
                1.0000001192092896,
                1
            ],
            "translation" : [
                0.040027834475040436,
                0.24707576632499695,
                -0.025551537051796913
            ]
        },
        {
            "children" : [
                0
            ],
            "name" : "head",
            "rotation" : [
                0.2152135670185089,
                1.4551848156909956e-14,
                5.131091640464547e-08,
                0.9765670299530029
            ],
            "translation" : [
                5.329070518200751e-15,
                0.05840059742331505,
                -2.2351741790771484e-08
            ]
        },
        {
            "children" : [
                1
            ],
            "name" : "neck",
            "rotation" : [
                -0.24383363127708435,
                4.57910246450411e-15,
                -5.813446435354308e-08,
                0.9698171019554138
            ],
            "scale" : [
                1,
                0.9999999403953552,
                0.9999999403953552
            ],
            "translation" : [
                3.1086244689504383e-15,
                0.05999195575714111,
                -1.30385160446167e-08
            ]
        },
        {
            "name" : "wrist.L",
            "rotation" : [
                -0.056178346276283264,
                6.850758654763922e-05,
                0.0012147731613367796,
                0.9984200596809387
            ],
            "scale" : [
                0.9999999403953552,
                1.0000001192092896,
                0.9999999403953552
            ],
            "translation" : [
                -2.6077033865590238e-08,
                0.1768815517425537,
                -3.236114709537219e-09
            ]
        },
        {
            "children" : [
                3
            ],
            "name" : "lower_arm.L",
            "rotation" : [
                0.11217933893203735,
                -2.8501511906142696e-07,
                -1.6632749577638606e-07,
                0.9936879873275757
            ],
            "scale" : [
                1,
                1,
                0.9999998807907104
            ],
            "translation" : [
                -6.376203032232297e-08,
                0.17688152194023132,
                5.587935447692871e-09
            ]
        },
        {
            "children" : [
                4
            ],
            "name" : "upper_arm.L",
            "rotation" : [
                -0.05613086000084877,
                0.002309620613232255,
                -0.04104990139603615,
                0.9975765347480774
            ],
            "scale" : [
                1,
                1.0000001192092896,
                0.9999999403953552
            ],
            "translation" : [
                0.02043829672038555,
                0.16000919044017792,
                -0.04896625131368637
            ]
        },
        {
            "children" : [
                5
            ],
            "name" : "collar.L",
            "rotation" : [
                -0.052295997738838196,
                -0.05160770192742348,
                -0.7005078196525574,
                0.7098525166511536
            ],
            "scale" : [
                0.9999998807907104,
                1,
                1.0000001192092896
            ],
            "translation" : [
                -1.5232531680453576e-08,
                0.02285696752369404,
                0.06388986855745316
            ]
        },
        {
            "name" : "wrist.R",
            "rotation" : [
                -0.05617835745215416,
                -6.850677891634405e-05,
                -0.0012147692032158375,
                0.9984200596809387
            ],
            "scale" : [
                0.9999998807907104,
                0.9999999403953552,
                0.9999999403953552
            ],
            "translation" : [
                2.2351741790771484e-08,
                0.17688150703907013,
                9.430797254239565e-10
            ]
        },
        {
            "children" : [
                7
            ],
            "name" : "lower_arm.R",
            "rotation" : [
                0.11217933148145676,
                2.8565145271386427e-07,
                1.7154725640011748e-07,
                0.9936879873275757
            ],
            "scale" : [
                1.0000001192092896,
                1.0000001192092896,
                0.9999999403953552
            ],
            "translation" : [
                2.2577784086763586e-09,
                0.1768815666437149,
                -1.3969838619232178e-09
            ]
        },
        {
            "children" : [
                8
            ],
            "name" : "upper_arm.R",
            "rotation" : [
                -0.05613083392381668,
                -0.0023096278309822083,
                0.04104989767074585,
                0.9975765347480774
            ],
            "scale" : [
                1,
                1.0000001192092896,
                0.9999998807907104
            ],
            "translation" : [
                -0.020438237115740776,
                0.16000919044017792,
                -0.04896624758839607
            ]
        },
        {
            "children" : [
                9
            ],
            "name" : "collar.R",
            "rotation" : [
                -0.05229617655277252,
                0.05160751938819885,
                0.7005077600479126,
                0.7098525762557983
            ],
            "scale" : [
                0.9999998807907104,
                1,
                1.0000001192092896
            ],
            "translation" : [
                -1.5232531680453576e-08,
                0.02285696752369404,
                0.06388986855745316
            ]
        },
        {
            "children" : [
                2,
                6,
                10
            ],
            "name" : "spine.004",
            "rotation" : [
                0.06187380105257034,
                3.559534411608266e-15,
                1.4751865506923423e-08,
                0.9980840682983398
            ],
            "translation" : [
                -4.440892098500626e-16,
                0.09453674405813217,
                1.862645149230957e-09
            ]
        },
        {
            "name" : "Bone",
            "rotation" : [
                0.7004883289337158,
                1.1315021765767597e-05,
                1.1273134987277444e-05,
                0.7136639356613159
            ],
            "scale" : [
                1,
                0.9999999403953552,
                0.9999999403953552
            ],
            "translation" : [
                -1.814527195165283e-08,
                0.10655150562524796,
                0.07610678672790527
            ]
        },
        {
            "children" : [
                11,
                12
            ],
            "name" : "spine.003",
            "rotation" : [
                0.0007579613011330366,
                -7.108899345651797e-15,
                1.8071194540780766e-10,
                0.9999997019767761
            ],
            "scale" : [
                1,
                1.0000001192092896,
                1
            ],
            "translation" : [
                4.440892098500626e-16,
                0.10112887620925903,
                -1.862645149230957e-09
            ]
        },
        {
            "children" : [
                13
            ],
            "name" : "spine.002",
            "rotation" : [
                0.010867642238736153,
                1.192022764939793e-07,
                1.2955239103717986e-09,
                0.9999410510063171
            ],
            "translation" : [
                0,
                0.13841021060943604,
                0
            ]
        },
        {
            "name" : "toe.L",
            "rotation" : [
                -0.11309874802827835,
                0.6951185464859009,
                0.1839873194694519,
                0.6856876611709595
            ],
            "scale" : [
                1,
                1.0000001192092896,
                1.0000001192092896
            ],
            "translation" : [
                -4.423782229423523e-09,
                0.08455938845872879,
                4.3655745685100555e-09
            ]
        },
        {
            "children" : [
                15
            ],
            "name" : "foot.L",
            "rotation" : [
                -0.4227924942970276,
                -0.6323167085647583,
                0.3750956654548645,
                0.5298352837562561
            ],
            "scale" : [
                1.0000001192092896,
                1,
                1
            ],
            "translation" : [
                1.6298145055770874e-09,
                0.2606911063194275,
                3.026798367500305e-09
            ]
        },
        {
            "children" : [
                16
            ],
            "name" : "shin.L",
            "rotation" : [
                0.05251649394631386,
                0.023176254704594612,
                -0.02085607498884201,
                0.9981332421302795
            ],
            "translation" : [
                -1.7811544239521027e-08,
                0.302301287651062,
                -4.656612873077393e-10
            ]
        },
        {
            "children" : [
                17
            ],
            "name" : "thigh.L",
            "rotation" : [
                -0.595152735710144,
                -0.4623340368270874,
                0.514315664768219,
                0.4092921018600464
            ],
            "scale" : [
                0.9999998211860657,
                0.9999998211860657,
                0.9999998211860657
            ],
            "translation" : [
                0.0018268150743097067,
                0.12829388678073883,
                -0.001886460231617093
            ]
        },
        {
            "children" : [
                18
            ],
            "name" : "pelvis.L",
            "rotation" : [
                -0.4036586582660675,
                -0.536969006061554,
                -0.4510749280452728,
                0.5875844359397888
            ],
            "scale" : [
                1,
                1.0000001192092896,
                0.9999999403953552
            ]
        },
        {
            "name" : "toe.R",
            "rotation" : [
                -0.11309874802827835,
                -0.6951185464859009,
                -0.1839873194694519,
                0.6856876611709595
            ],
            "scale" : [
                1,
                1.0000001192092896,
                1.0000001192092896
            ],
            "translation" : [
                4.423782229423523e-09,
                0.08455938845872879,
                4.3655745685100555e-09
            ]
        },
        {
            "children" : [
                20
            ],
            "name" : "foot.R",
            "rotation" : [
                -0.4227924942970276,
                0.6323167085647583,
                -0.3750956654548645,
                0.5298352837562561
            ],
            "scale" : [
                1.0000001192092896,
                1,
                1
            ],
            "translation" : [
                -1.6298145055770874e-09,
                0.2606911063194275,
                3.026798367500305e-09
            ]
        },
        {
            "children" : [
                21
            ],
            "name" : "shin.R",
            "rotation" : [
                0.05251649394631386,
                -0.023176254704594612,
                0.02085607498884201,
                0.9981332421302795
            ],
            "translation" : [
                1.7811544239521027e-08,
                0.302301287651062,
                -4.656612873077393e-10
            ]
        },
        {
            "children" : [
                22
            ],
            "name" : "thigh.R",
            "rotation" : [
                -0.595152735710144,
                0.4623340368270874,
                -0.514315664768219,
                0.4092921018600464
            ],
            "scale" : [
                0.9999998211860657,
                0.9999998211860657,
                0.9999998211860657
            ],
            "translation" : [
                -0.0018268150743097067,
                0.12829388678073883,
                -0.001886460231617093
            ]
        },
        {
            "children" : [
                23
            ],
            "name" : "pelvis.R",
            "rotation" : [
                -0.4036586582660675,
                0.536969006061554,
                0.4510749280452728,
                0.5875844359397888
            ],
            "scale" : [
                1,
                1.0000001192092896,
                0.9999999403953552
            ]
        },
        {
            "children" : [
                14,
                19,
                24
            ],
            "name" : "spine.001",
            "rotation" : [
                0.7071068286895752,
                0,
                0,
                0.7071068286895752
            ],
            "translation" : [
                0,
                -0.04424092173576355,
                -0.03736501932144165
            ]
        },
        {
            "children" : [
                25
            ],
            "name" : "pelvis_control",
            "translation" : [
                0,
                0.0662202537059784,
                0.6132234930992126
            ]
        },
        {
            "children" : [
                26
            ],
            "name" : "root",
            "rotation" : [
                -0.7071068286895752,
                0,
                0,
                0.7071068286895752
            ]
        },
        {
            "mesh" : 0,
            "name" : "ClownPuppet",
            "skin" : 0
        },
        {
            "children" : [
                28,
                27
            ],
            "name" : "Armature"
        }
    ],
    "materials" : [
        {
            "alphaCutoff" : 0.6597222089767456,
            "alphaMode" : "MASK",
            "doubleSided" : true,
            "name" : "ClownPuppetMaterial",
            "pbrMetallicRoughness" : {
                "baseColorTexture" : {
                    "index" : 0
                },
                "metallicFactor" : 0,
                "roughnessFactor" : 0.6040462255477905
            }
        }
    ],
    "meshes" : [
        {
            "name" : "Mesh",
            "primitives" : [
                {
                    "attributes" : {
                        "POSITION" : 0,
                        "TEXCOORD_0" : 1,
                        "NORMAL" : 2,
                        "JOINTS_0" : 3,
                        "WEIGHTS_0" : 4
                    },
                    "indices" : 5,
                    "material" : 0
                }
            ]
        }
    ],
    "textures" : [
        {
            "sampler" : 0,
            "source" : 0
        }
    ],
    "images" : [
        {
            "bufferView" : 6,
            "mimeType" : "image/png",
            "name" : "clown_puppet_uv"
        }
    ],
    "skins" : [
        {
            "inverseBindMatrices" : 6,
            "joints" : [
                27,
                26,
                25,
                14,
                13,
                11,
                2,
                1,
                0,
                6,
                5,
                4,
                3,
                10,
                9,
                8,
                7,
                12,
                19,
                18,
                17,
                16,
                15,
                24,
                23,
                22,
                21,
                20
            ],
            "name" : "Armature"
        }
    ],
    "accessors" : [
        {
            "bufferView" : 0,
            "componentType" : 5126,
            "count" : 1047,
            "max" : [
                0.6749629378318787,
                1.3961001634597778,
                0.14148245751857758
            ],
            "min" : [
                -0.6749629974365234,
                0.003254116978496313,
                -0.14261433482170105
            ],
            "type" : "VEC3"
        },
        {
            "bufferView" : 1,
            "componentType" : 5126,
            "count" : 1047,
            "type" : "VEC2"
        },
        {
            "bufferView" : 2,
            "componentType" : 5126,
            "count" : 1047,
            "type" : "VEC3"
        },
        {
            "bufferView" : 3,
            "componentType" : 5121,
            "count" : 1047,
            "type" : "VEC4"
        },
        {
            "bufferView" : 4,
            "componentType" : 5126,
            "count" : 1047,
            "type" : "VEC4"
        },
        {
            "bufferView" : 5,
            "componentType" : 5123,
            "count" : 4086,
            "type" : "SCALAR"
        },
        {
            "bufferView" : 7,
            "componentType" : 5126,
            "count" : 28,
            "type" : "MAT4"
        }
    ],
    "bufferViews" : [
        {
            "buffer" : 0,
            "byteLength" : 12564,
            "byteOffset" : 0,
            "target" : 34962
        },
        {
            "buffer" : 0,
            "byteLength" : 8376,
            "byteOffset" : 12564,
            "target" : 34962
        },
        {
            "buffer" : 0,
            "byteLength" : 12564,
            "byteOffset" : 20940,
            "target" : 34962
        },
        {
            "buffer" : 0,
            "byteLength" : 4188,
            "byteOffset" : 33504,
            "target" : 34962
        },
        {
            "buffer" : 0,
            "byteLength" : 16752,
            "byteOffset" : 37692,
            "target" : 34962
        },
        {
            "buffer" : 0,
            "byteLength" : 8172,
            "byteOffset" : 54444,
            "target" : 34963
        },
        {
            "buffer" : 0,
            "byteLength" : 360199,
            "byteOffset" : 62616
        },
        {
            "buffer" : 0,
            "byteLength" : 1792,
            "byteOffset" : 422816
        }
    ],
    "samplers" : [
        {
            "magFilter" : 9729,
            "minFilter" : 9987
        }
    ],
    "buffers" : [
        {
            "byteLength" : 424608,
            "uri" : "data:application/octet-stream;base64,"
        }
    ]
}
