{
    "asset" : {
        "generator" : "Khronos glTF Blender I/O v3.4.50",
        "version" : "2.0"
    },
    "extensionsUsed" : [
        "KHR_materials_specular",
        "KHR_materials_ior"
    ],
    "scene" : 0,
    "scenes" : [
        {
            "extras" : {
                "qremesher" : {
                    "target_count" : 50,
                    "adapt_quad_count" : 1
                }
            },
            "name" : "Scene",
            "nodes" : [
                0,
                1,
                2,
                3
            ]
        }
    ],
    "nodes" : [
        {
            "extras" : {
                "MaxHandle" : 98
            },
            "mesh" : 0,
            "name" : "ToiletSeat",
            "scale" : [
                2,
                2,
                2
            ]
        },
        {
            "extras" : {
                "MaxHandle" : 83
            },
            "mesh" : 1,
            "name" : "Water",
            "scale" : [
                2,
                2,
                2
            ]
        },
        {
            "mesh" : 2,
            "name" : "ToiletPipes",
            "scale" : [
                2,
                2,
                2
            ]
        },
        {
            "mesh" : 3,
            "name" : "ToiletBody",
            "scale" : [
                2,
                2,
                2
            ]
        }
    ],
    "materials" : [
        {
            "doubleSided" : true,
            "extensions" : {
                "KHR_materials_specular" : {
                    "specularColorFactor" : [
                        0,
                        0,
                        0
                    ]
                },
                "KHR_materials_ior" : {
                    "ior" : 1.4500000476837158
                }
            },
            "name" : "dbl_Toilet 2009_001.005",
            "pbrMetallicRoughness" : {
                "metallicFactor" : 0,
                "roughnessFactor" : 0.5527864098548889
            }
        }
    ],
    "meshes" : [
        {
            "name" : "Mesh.143",
            "primitives" : [
                {
                    "attributes" : {
                        "POSITION" : 0,
                        "TEXCOORD_0" : 1,
                        "TEXCOORD_1" : 2,
                        "NORMAL" : 3
                    },
                    "indices" : 4
                }
            ]
        },
        {
            "name" : "Mesh.153",
            "primitives" : [
                {
                    "attributes" : {
                        "POSITION" : 5,
                        "TEXCOORD_0" : 6,
                        "TEXCOORD_1" : 7,
                        "NORMAL" : 8
                    },
                    "indices" : 9
                }
            ]
        },
        {
            "name" : "Circle",
            "primitives" : [
                {
                    "attributes" : {
                        "POSITION" : 10,
                        "TEXCOORD_0" : 11,
                        "NORMAL" : 12
                    },
                    "indices" : 13
                }
            ]
        },
        {
            "name" : "mesh.001",
            "primitives" : [
                {
                    "attributes" : {
                        "POSITION" : 14,
                        "NORMAL" : 15
                    },
                    "indices" : 16,
                    "material" : 0
                }
            ]
        }
    ],
    "accessors" : [
        {
            "bufferView" : 0,
            "componentType" : 5126,
            "count" : 372,
            "max" : [
                0.18362337350845337,
                0.43141043186187744,
                -0.12886284291744232
            ],
            "min" : [
                -0.18610838055610657,
                0.4172638952732086,
                -0.569983959197998
            ],
            "type" : "VEC3"
        },
        {
            "bufferView" : 1,
            "componentType" : 5126,
            "count" : 372,
            "type" : "VEC2"
        },
        {
            "bufferView" : 2,
            "componentType" : 5126,
            "count" : 372,
            "type" : "VEC2"
        },
        {
            "bufferView" : 3,
            "componentType" : 5126,
            "count" : 372,
            "type" : "VEC3"
        },
        {
            "bufferView" : 4,
            "componentType" : 5123,
            "count" : 1002,
            "type" : "SCALAR"
        },
        {
            "bufferView" : 5,
            "componentType" : 5126,
            "count" : 24,
            "max" : [
                0.13932089507579803,
                0.33109456300735474,
                -0.21906813979148865
            ],
            "min" : [
                -0.1306365430355072,
                0.33109453320503235,
                -0.5610637664794922
            ],
            "type" : "VEC3"
        },
        {
            "bufferView" : 6,
            "componentType" : 5126,
            "count" : 24,
            "type" : "VEC2"
        },
        {
            "bufferView" : 7,
            "componentType" : 5126,
            "count" : 24,
            "type" : "VEC2"
        },
        {
            "bufferView" : 8,
            "componentType" : 5126,
            "count" : 24,
            "type" : "VEC3"
        },
        {
            "bufferView" : 9,
            "componentType" : 5123,
            "count" : 66,
            "type" : "SCALAR"
        },
        {
            "bufferView" : 10,
            "componentType" : 5126,
            "count" : 996,
            "max" : [
                0.14778417348861694,
                0.8914231657981873,
                0.12555629014968872
            ],
            "min" : [
                -0.15764965116977692,
                0.4167283773422241,
                -0.05151941999793053
            ],
            "type" : "VEC3"
        },
        {
            "bufferView" : 11,
            "componentType" : 5126,
            "count" : 996,
            "type" : "VEC2"
        },
        {
            "bufferView" : 12,
            "componentType" : 5126,
            "count" : 996,
            "type" : "VEC3"
        },
        {
            "bufferView" : 13,
            "componentType" : 5123,
            "count" : 1578,
            "type" : "SCALAR"
        },
        {
            "bufferView" : 14,
            "componentType" : 5126,
            "count" : 775,
            "max" : [
                0.19415481388568878,
                0.41726431250572205,
                0.10281246155500412
            ],
            "min" : [
                -0.19799581170082092,
                -0.001789527595974505,
                -0.6190380454063416
            ],
            "type" : "VEC3"
        },
        {
            "bufferView" : 15,
            "componentType" : 5126,
            "count" : 775,
            "type" : "VEC3"
        },
        {
            "bufferView" : 16,
            "componentType" : 5123,
            "count" : 2562,
            "type" : "SCALAR"
        }
    ],
    "bufferViews" : [
        {
            "buffer" : 0,
            "byteLength" : 4464,
            "byteOffset" : 0,
            "target" : 34962
        },
        {
            "buffer" : 0,
            "byteLength" : 2976,
            "byteOffset" : 4464,
            "target" : 34962
        },
        {
            "buffer" : 0,
            "byteLength" : 2976,
            "byteOffset" : 7440,
            "target" : 34962
        },
        {
            "buffer" : 0,
            "byteLength" : 4464,
            "byteOffset" : 10416,
            "target" : 34962
        },
        {
            "buffer" : 0,
            "byteLength" : 2004,
            "byteOffset" : 14880,
            "target" : 34963
        },
        {
            "buffer" : 0,
            "byteLength" : 288,
            "byteOffset" : 16884,
            "target" : 34962
        },
        {
            "buffer" : 0,
            "byteLength" : 192,
            "byteOffset" : 17172,
            "target" : 34962
        },
        {
            "buffer" : 0,
            "byteLength" : 192,
            "byteOffset" : 17364,
            "target" : 34962
        },
        {
            "buffer" : 0,
            "byteLength" : 288,
            "byteOffset" : 17556,
            "target" : 34962
        },
        {
            "buffer" : 0,
            "byteLength" : 132,
            "byteOffset" : 17844,
            "target" : 34963
        },
        {
            "buffer" : 0,
            "byteLength" : 11952,
            "byteOffset" : 17976,
            "target" : 34962
        },
        {
            "buffer" : 0,
            "byteLength" : 7968,
            "byteOffset" : 29928,
            "target" : 34962
        },
        {
            "buffer" : 0,
            "byteLength" : 11952,
            "byteOffset" : 37896,
            "target" : 34962
        },
        {
            "buffer" : 0,
            "byteLength" : 3156,
            "byteOffset" : 49848,
            "target" : 34963
        },
        {
            "buffer" : 0,
            "byteLength" : 9300,
            "byteOffset" : 53004,
            "target" : 34962
        },
        {
            "buffer" : 0,
            "byteLength" : 9300,
            "byteOffset" : 62304,
            "target" : 34962
        },
        {
            "buffer" : 0,
            "byteLength" : 5124,
            "byteOffset" : 71604,
            "target" : 34963
        }
    ],
    "buffers" : [
        {
            "byteLength" : 76728,
            "uri" : "data:application/octet-stream;base64,"
        }
    ]
}
