{
    "asset" : {
        "generator" : "Khronos glTF Blender I/O v3.4.50",
        "version" : "2.0"
    },
    "extensionsUsed" : [
        "KHR_materials_specular",
        "KHR_materials_ior"
    ],
    "scene" : 0,
    "scenes" : [
        {
            "extras" : {
                "qremesher" : {
                    "target_count" : 50,
                    "adapt_quad_count" : 1
                }
            },
            "name" : "Scene",
            "nodes" : [
                0,
                1
            ]
        }
    ],
    "nodes" : [
        {
            "extras" : {
                "MaxHandle" : 83
            },
            "mesh" : 0,
            "name" : "Water",
            "scale" : [
                2,
                2,
                2
            ],
            "translation" : [
                0,
                -0.15039481222629547,
                0
            ]
        },
        {
            "mesh" : 1,
            "name" : "ToiletBody",
            "scale" : [
                2,
                2,
                2
            ]
        }
    ],
    "materials" : [
        {
            "doubleSided" : true,
            "extensions" : {
                "KHR_materials_specular" : {
                    "specularColorFactor" : [
                        0,
                        0,
                        0
                    ]
                },
                "KHR_materials_ior" : {
                    "ior" : 1.4500000476837158
                }
            },
            "name" : "Water",
            "pbrMetallicRoughness" : {
                "baseColorFactor" : [
                    0.07439359277486801,
                    0.4434396028518677,
                    1,
                    1
                ],
                "metallicFactor" : 0,
                "roughnessFactor" : 0.5527864098548889
            }
        },
        {
            "doubleSided" : true,
            "extensions" : {
                "KHR_materials_specular" : {
                    "specularColorFactor" : [
                        0,
                        0,
                        0
                    ]
                },
                "KHR_materials_ior" : {
                    "ior" : 1.4500000476837158
                }
            },
            "name" : "ToiletBody",
            "pbrMetallicRoughness" : {
                "metallicFactor" : 0,
                "roughnessFactor" : 0.5527864098548889
            }
        },
        {
            "alphaCutoff" : 0,
            "alphaMode" : "MASK",
            "name" : "Outline",
            "pbrMetallicRoughness" : {}
        }
    ],
    "meshes" : [
        {
            "name" : "Mesh.153",
            "primitives" : [
                {
                    "attributes" : {
                        "POSITION" : 0,
                        "TEXCOORD_0" : 1,
                        "TEXCOORD_1" : 2,
                        "NORMAL" : 3
                    },
                    "indices" : 4,
                    "material" : 0
                }
            ]
        },
        {
            "name" : "mesh.001",
            "primitives" : [
                {
                    "attributes" : {
                        "POSITION" : 5,
                        "NORMAL" : 6
                    },
                    "indices" : 7,
                    "material" : 1
                },
                {
                    "attributes" : {
                        "POSITION" : 8,
                        "NORMAL" : 9
                    },
                    "indices" : 10,
                    "material" : 2
                }
            ]
        }
    ],
    "accessors" : [
        {
            "bufferView" : 0,
            "componentType" : 5126,
            "count" : 24,
            "max" : [
                0.13932089507579803,
                0.33109456300735474,
                -0.21906813979148865
            ],
            "min" : [
                -0.1306365430355072,
                0.33109453320503235,
                -0.5610637664794922
            ],
            "type" : "VEC3"
        },
        {
            "bufferView" : 1,
            "componentType" : 5126,
            "count" : 24,
            "type" : "VEC2"
        },
        {
            "bufferView" : 2,
            "componentType" : 5126,
            "count" : 24,
            "type" : "VEC2"
        },
        {
            "bufferView" : 3,
            "componentType" : 5126,
            "count" : 24,
            "type" : "VEC3"
        },
        {
            "bufferView" : 4,
            "componentType" : 5123,
            "count" : 66,
            "type" : "SCALAR"
        },
        {
            "bufferView" : 5,
            "componentType" : 5126,
            "count" : 874,
            "max" : [
                0.18322424590587616,
                0.3471751809120178,
                0.0941944271326065
            ],
            "min" : [
                -0.18702787160873413,
                0.004807261284440756,
                -0.5920233130455017
            ],
            "type" : "VEC3"
        },
        {
            "bufferView" : 6,
            "componentType" : 5126,
            "count" : 874,
            "type" : "VEC3"
        },
        {
            "bufferView" : 7,
            "componentType" : 5123,
            "count" : 2562,
            "type" : "SCALAR"
        },
        {
            "bufferView" : 8,
            "componentType" : 5126,
            "count" : 971,
            "max" : [
                0.20309799909591675,
                0.36230090260505676,
                0.11158062517642975
            ],
            "min" : [
                -0.20696957409381866,
                -0.01024097390472889,
                -0.6081752181053162
            ],
            "type" : "VEC3"
        },
        {
            "bufferView" : 9,
            "componentType" : 5126,
            "count" : 971,
            "type" : "VEC3"
        },
        {
            "bufferView" : 10,
            "componentType" : 5123,
            "count" : 3042,
            "type" : "SCALAR"
        }
    ],
    "bufferViews" : [
        {
            "buffer" : 0,
            "byteLength" : 288,
            "byteOffset" : 0,
            "target" : 34962
        },
        {
            "buffer" : 0,
            "byteLength" : 192,
            "byteOffset" : 288,
            "target" : 34962
        },
        {
            "buffer" : 0,
            "byteLength" : 192,
            "byteOffset" : 480,
            "target" : 34962
        },
        {
            "buffer" : 0,
            "byteLength" : 288,
            "byteOffset" : 672,
            "target" : 34962
        },
        {
            "buffer" : 0,
            "byteLength" : 132,
            "byteOffset" : 960,
            "target" : 34963
        },
        {
            "buffer" : 0,
            "byteLength" : 10488,
            "byteOffset" : 1092,
            "target" : 34962
        },
        {
            "buffer" : 0,
            "byteLength" : 10488,
            "byteOffset" : 11580,
            "target" : 34962
        },
        {
            "buffer" : 0,
            "byteLength" : 5124,
            "byteOffset" : 22068,
            "target" : 34963
        },
        {
            "buffer" : 0,
            "byteLength" : 11652,
            "byteOffset" : 27192,
            "target" : 34962
        },
        {
            "buffer" : 0,
            "byteLength" : 11652,
            "byteOffset" : 38844,
            "target" : 34962
        },
        {
            "buffer" : 0,
            "byteLength" : 6084,
            "byteOffset" : 50496,
            "target" : 34963
        }
    ],
    "buffers" : [
        {
            "byteLength" : 56580,
            "uri" : "data:application/octet-stream;base64,"
        }
    ]
}
